<svg id="Capa_1" enable-background="new 0 0 512.008 512.008" height="512" viewBox="0 0 512.008 512.008" width="512" xmlns="http://www.w3.org/2000/svg"><g><path d="m466.004 346.008c0-8.291-6.709-15-15-15h-60v-60h-45v60h-30v-60h-45v60h-30v-60h-45v60h-30v-60h-45v60h-60c-8.291 0-15 6.709-15 15v45h420z"/><path d="m391.004 196.008c0-8.291-6.709-15-15-15h-240c-8.291 0-15 6.709-15 15v45h270z"/><path d="m481.004 482.008h-15v-60h-45v60h-30v-60h-45v60h-30v-60h-45v60h-30v-60h-45v60h-30v-60h-45v60h-30v-60h-45v60h-15c-8.291 0-15 6.709-15 15s6.709 15 15 15h450c8.291 0 15-6.709 15-15s-6.709-15-15-15z"/><path d="m271.004 91.11v-5.303l79.799-26.7c6-1.8 10.201-7.5 10.201-14.099 0-6.601-4.2-12.301-10.201-14.101l-90-30c-4.802-1.597-5.642-.599-8.099-.599-.208.069-11.7 2.641-11.7 14.7v76.102c-35.191 5.107-64.614 27.872-79.468 58.898h188.936c-14.854-31.025-44.277-53.791-79.468-58.898z"/></g></svg>